<svg width="32" height="32" viewBox="0 0 32 32" fill="none" xmlns="http://www.w3.org/2000/svg">
<path d="M29.3334 28.3333H2.66675C2.12008 28.3333 1.66675 28.7866 1.66675 29.3333C1.66675 29.8799 2.12008 30.3333 2.66675 30.3333H29.3334C29.8801 30.3333 30.3334 29.8799 30.3334 29.3333C30.3334 28.7866 29.8801 28.3333 29.3334 28.3333Z" fill="#B17B7C"/>
<path d="M22.6667 2.66675H9.33333C5.33333 2.66675 4 5.05341 4 8.00008V29.3334H12V21.2534C12 20.5601 12.56 20.0001 13.2533 20.0001H18.76C19.44 20.0001 20.0133 20.5601 20.0133 21.2534V29.3334H28.0133V8.00008C28 5.05341 26.6667 2.66675 22.6667 2.66675ZM19.3333 12.3334H17V14.6667C17 15.2134 16.5467 15.6667 16 15.6667C15.4533 15.6667 15 15.2134 15 14.6667V12.3334H12.6667C12.12 12.3334 11.6667 11.8801 11.6667 11.3334C11.6667 10.7867 12.12 10.3334 12.6667 10.3334H15V8.00008C15 7.45341 15.4533 7.00008 16 7.00008C16.5467 7.00008 17 7.45341 17 8.00008V10.3334H19.3333C19.88 10.3334 20.3333 10.7867 20.3333 11.3334C20.3333 11.8801 19.88 12.3334 19.3333 12.3334Z" fill="#B17B7C"/>
</svg>
