<svg width="32" height="32" viewBox="0 0 32 32" fill="none" xmlns="http://www.w3.org/2000/svg">
<path d="M29.3334 25.3333V29.3333H2.66675V25.3333C2.66675 24.6 3.26675 24 4.00008 24H28.0001C28.7334 24 29.3334 24.6 29.3334 25.3333Z" fill="#9D9858" stroke="#9D9858" stroke-width="1.5" stroke-miterlimit="10" stroke-linecap="round" stroke-linejoin="round"/>
<path d="M9.33341 14.6667H6.66675V24.0001H9.33341V14.6667Z" fill="#9D9858"/>
<path d="M14.6667 14.6667H12V24.0001H14.6667V14.6667Z" fill="#9D9858"/>
<path d="M19.9999 14.6667H17.3333V24.0001H19.9999V14.6667Z" fill="#9D9858"/>
<path d="M25.3334 14.6667H22.6667V24.0001H25.3334V14.6667Z" fill="#9D9858"/>
<path d="M30.6666 30.3333H1.33325C0.786585 30.3333 0.333252 29.8799 0.333252 29.3333C0.333252 28.7866 0.786585 28.3333 1.33325 28.3333H30.6666C31.2132 28.3333 31.6666 28.7866 31.6666 29.3333C31.6666 29.8799 31.2132 30.3333 30.6666 30.3333Z" fill="#9D9858"/>
<path d="M28.4934 7.66662L16.4934 2.86662C16.2267 2.75995 15.7734 2.75995 15.5067 2.86662L3.50675 7.66662C3.04008 7.85329 2.66675 8.39995 2.66675 8.90662V13.3333C2.66675 14.0666 3.26675 14.6666 4.00008 14.6666H28.0001C28.7334 14.6666 29.3334 14.0666 29.3334 13.3333V8.90662C29.3334 8.39995 28.9601 7.85329 28.4934 7.66662ZM16.0001 11.3333C14.8934 11.3333 14.0001 10.44 14.0001 9.33329C14.0001 8.22662 14.8934 7.33329 16.0001 7.33329C17.1067 7.33329 18.0001 8.22662 18.0001 9.33329C18.0001 10.44 17.1067 11.3333 16.0001 11.3333Z" fill="#9D9858"/>
</svg>
