<svg width="32" height="32" viewBox="0 0 32 32" fill="none" xmlns="http://www.w3.org/2000/svg">
<path d="M21.6666 29.9999C22.9552 29.9999 23.9999 28.9552 23.9999 27.6666C23.9999 26.3779 22.9552 25.3333 21.6666 25.3333C20.3779 25.3333 19.3333 26.3779 19.3333 27.6666C19.3333 28.9552 20.3779 29.9999 21.6666 29.9999Z" fill="#6A9EB3"/>
<path d="M11.0001 29.9999C12.2887 29.9999 13.3334 28.9552 13.3334 27.6666C13.3334 26.3779 12.2887 25.3333 11.0001 25.3333C9.71142 25.3333 8.66675 26.3779 8.66675 27.6666C8.66675 28.9552 9.71142 29.9999 11.0001 29.9999Z" fill="#6A9EB3"/>
<path d="M6.45341 5.25341L6.18675 8.52008C6.13341 9.14675 6.62675 9.66675 7.25342 9.66675H27.6667C28.2267 9.66675 28.6934 9.24008 28.7334 8.68008C28.9067 6.32008 27.1067 4.40008 24.7467 4.40008H8.36008C8.22675 3.81341 7.96008 3.25341 7.54675 2.78675C6.88008 2.08008 5.94675 1.66675 4.98675 1.66675H2.66675C2.12008 1.66675 1.66675 2.12008 1.66675 2.66675C1.66675 3.21341 2.12008 3.66675 2.66675 3.66675H4.98675C5.40008 3.66675 5.78675 3.84008 6.06675 4.13341C6.34675 4.44008 6.48008 4.84008 6.45341 5.25341Z" fill="#6A9EB3"/>
<path d="M27.3467 11.6667H6.89332C6.33332 11.6667 5.87999 12.0934 5.82666 12.6401L5.34666 18.4401C5.15999 20.7201 6.94666 22.6667 9.22666 22.6667H24.0533C26.0533 22.6667 27.8133 21.0267 27.96 19.0267L28.4 12.8001C28.4533 12.1867 27.9733 11.6667 27.3467 11.6667Z" fill="#6A9EB3"/>
</svg>
