<svg width="32" height="33" viewBox="0 0 32 33" fill="none" xmlns="http://www.w3.org/2000/svg">
<path d="M22.2001 7.62671H9.80008C5.86675 7.62671 2.66675 10.8267 2.66675 14.76V22.2C2.66675 26.1334 5.86675 29.3334 9.80008 29.3334H22.2001C26.1334 29.3334 29.3334 26.1334 29.3334 22.2V14.76C29.3334 10.8267 26.1334 7.62671 22.2001 7.62671ZM19.3334 16.0267C19.3334 15.2934 19.9334 14.6934 20.6667 14.6934C21.4001 14.6934 22.0001 15.2934 22.0001 16.0267C22.0001 16.76 21.4001 17.3734 20.6667 17.3734C19.9334 17.3734 19.3334 16.7867 19.3334 16.0534V16.0267ZM13.5067 21.4267C13.3067 21.6267 13.0534 21.72 12.8001 21.72C12.5467 21.72 12.2934 21.6267 12.0934 21.4267L10.7201 20.0534L9.40008 21.3734C9.20008 21.5734 8.94675 21.6667 8.69341 21.6667C8.44008 21.6667 8.18675 21.5734 7.98675 21.3734C7.60008 20.9867 7.60008 20.3467 7.98675 19.96L9.30675 18.64L8.02675 17.36C7.64008 16.9734 7.64008 16.3334 8.02675 15.9467C8.41341 15.56 9.05341 15.56 9.44008 15.9467L10.7201 17.2267L12.0401 15.9067C12.4267 15.52 13.0667 15.52 13.4534 15.9067C13.8401 16.2934 13.8401 16.9334 13.4534 17.32L12.1334 18.64L13.5067 20.0134C13.8934 20.4 13.8934 21.04 13.5067 21.4267ZM18.0534 20C17.3201 20 16.7067 19.4 16.7067 18.6667C16.7067 17.9334 17.2934 17.3334 18.0267 17.3334H18.0534C18.7867 17.3334 19.3867 17.9334 19.3867 18.6667C19.3867 19.4 18.8001 20 18.0534 20ZM20.6667 22.6267C19.9334 22.6267 19.3334 22.04 19.3334 21.3067V21.28C19.3334 20.5467 19.9334 19.9467 20.6667 19.9467C21.4001 19.9467 22.0001 20.5467 22.0001 21.28C22.0001 22.0134 21.4134 22.6267 20.6667 22.6267ZM23.3067 20C22.5734 20 21.9601 19.4 21.9601 18.6667C21.9601 17.9334 22.5467 17.3334 23.2801 17.3334H23.3067C24.0401 17.3334 24.6401 17.9334 24.6401 18.6667C24.6401 19.4 24.0534 20 23.3067 20Z" fill="#9270B4"/>
<path d="M18.1866 3.61341L18.1732 4.86675C18.1599 6.04008 17.1866 7.01342 15.9999 7.01342C15.7999 7.01342 15.6799 7.14675 15.6799 7.32008C15.6799 7.49341 15.8132 7.62675 15.9866 7.62675H13.8399C13.8266 7.53341 13.8132 7.42675 13.8132 7.32008C13.8132 6.12008 14.7866 5.14675 15.9732 5.14675C16.1732 5.14675 16.3066 5.01341 16.3066 4.84008L16.3199 3.58675C16.3332 3.08008 16.7466 2.66675 17.2532 2.66675H17.2666C17.7866 2.66675 18.1866 3.09341 18.1866 3.61341Z" fill="#9270B4"/>
</svg>
