<svg width="32" height="32" viewBox="0 0 32 32" fill="none" xmlns="http://www.w3.org/2000/svg">
<path d="M16 25.0001C15.4533 25.0001 15 24.5467 15 24.0001V22.6667C15 22.1201 15.4533 21.6667 16 21.6667C16.5467 21.6667 17 22.1201 17 22.6667V24.0001C17 24.5467 16.5467 25.0001 16 25.0001Z" fill="#7B8EB7"/>
<path d="M16 30.3333C15.4533 30.3333 15 29.88 15 29.3333V28C15 27.4533 15.4533 27 16 27C16.5467 27 17 27.4533 17 28V29.3333C17 29.88 16.5467 30.3333 16 30.3333Z" fill="#7B8EB7"/>
<path d="M2.66655 30.3334C2.58655 30.3334 2.50655 30.32 2.42655 30.3067C1.89322 30.1734 1.55989 29.6267 1.69322 29.0934L3.02655 23.76C3.15989 23.2267 3.69322 22.8934 4.23989 23.0267C4.77322 23.16 5.10655 23.7067 4.97322 24.24L3.63989 29.5734C3.51989 30.0267 3.11989 30.3334 2.66655 30.3334Z" fill="#7B8EB7"/>
<path d="M29.0036 30.0036C28.5503 30.0036 28.1503 29.6969 28.0303 29.2436L26.6969 23.9103C26.5636 23.3769 26.8836 22.8303 27.4303 22.6969C27.9636 22.5636 28.5103 22.8836 28.6436 23.4303L29.9769 28.7636C30.1103 29.2969 29.7903 29.8436 29.2436 29.9769C29.1636 29.9903 29.0836 30.0036 29.0036 30.0036Z" fill="#7B8EB7"/>
<path d="M25.52 7.06659C25.52 7.46659 25.1867 7.78659 24.8 7.78659H7.37332C6.97332 7.78659 6.65332 7.45325 6.65332 7.06659C6.65332 6.66659 6.98665 6.34659 7.37332 6.34659H8.35999L8.73332 4.59992C9.07999 2.89325 9.79999 1.33325 12.68 1.33325H19.4667C22.3467 1.33325 23.08 2.89325 23.4267 4.58659L23.8 6.33325H24.7867C25.1867 6.33325 25.52 6.66659 25.52 7.06659Z" fill="#7B8EB7"/>
<path d="M25.9334 12.5333C25.7868 10.9333 25.3601 9.23999 22.2534 9.23999H9.90678C6.80011 9.23999 6.38678 10.9467 6.22678 12.5333L5.68011 18.4267C5.61344 19.16 5.85344 19.8933 6.36011 20.4533C6.88011 21.0133 7.60011 21.3333 8.37344 21.3333H10.1868C11.7601 21.3333 12.0534 20.44 12.2534 19.84L12.4534 19.2533C12.6801 18.5867 12.7334 18.4267 13.6001 18.4267H18.5601C19.4268 18.4267 19.4534 18.52 19.7068 19.2533L19.9068 19.84C20.0934 20.44 20.4001 21.3333 21.9601 21.3333H23.7734C24.5334 21.3333 25.2668 21.0133 25.7868 20.4533C26.2934 19.9067 26.5334 19.16 26.4668 18.4267L25.9334 12.5333ZM13.1734 14.56H10.2801C9.88011 14.56 9.56011 14.2267 9.56011 13.84C9.56011 13.4533 9.89344 13.12 10.2801 13.12H13.1868C13.5868 13.12 13.9068 13.4533 13.9068 13.84C13.9068 14.2267 13.5734 14.56 13.1734 14.56ZM21.8801 14.56H18.9734C18.5734 14.56 18.2534 14.2267 18.2534 13.84C18.2534 13.4533 18.5868 13.12 18.9734 13.12H21.8801C22.2801 13.12 22.6001 13.4533 22.6001 13.84C22.6001 14.2267 22.2801 14.56 21.8801 14.56Z" fill="#7B8EB7"/>
</svg>
