<svg width="33" height="33" viewBox="0 0 33 33" fill="none" xmlns="http://www.w3.org/2000/svg">
<path d="M9 6.82674C8.45333 6.82674 8 6.37341 8 5.82674V3.49341C8 2.94674 8.45333 2.49341 9 2.49341C9.54667 2.49341 10 2.94674 10 3.49341V5.82674C10 6.38674 9.54667 6.82674 9 6.82674Z" fill="#C29559"/>
<path d="M14.3333 6.82674C13.7866 6.82674 13.3333 6.37341 13.3333 5.82674V3.49341C13.3333 2.94674 13.7866 2.49341 14.3333 2.49341C14.8799 2.49341 15.3333 2.94674 15.3333 3.49341V5.82674C15.3333 6.38674 14.8799 6.82674 14.3333 6.82674Z" fill="#C29559"/>
<path d="M19.6667 6.82674C19.1201 6.82674 18.6667 6.37341 18.6667 5.82674V3.49341C18.6667 2.94674 19.1201 2.49341 19.6667 2.49341C20.2134 2.49341 20.6667 2.94674 20.6667 3.49341V5.82674C20.6667 6.38674 20.2134 6.82674 19.6667 6.82674Z" fill="#C29559"/>
<path d="M30.6666 17.6667C30.6666 14.1733 27.9599 11.3467 24.5466 11.0533C23.5599 9.44001 21.7999 8.34668 19.7733 8.34668H9.94659C6.85325 8.34668 4.33325 10.8667 4.33325 13.96V14.6667H25.3866V13.96C25.3866 13.7067 25.3466 13.4533 25.3066 13.2133C27.2399 13.7867 28.6666 15.5467 28.6666 17.6667C28.6666 19.76 27.2799 21.5067 25.3866 22.0933V16H4.33325V23.72C4.33325 26.8133 6.85325 29.3333 9.94659 29.3333H19.7733C22.7066 29.3333 25.0933 27.0667 25.3333 24.1867C28.3733 23.5733 30.6666 20.88 30.6666 17.6667Z" fill="#C29559"/>
</svg>
