<svg width="24" height="24" viewBox="0 0 24 24" fill="none" xmlns="http://www.w3.org/2000/svg">
<path d="M16.1971 2H7.8129C4.17108 2 2 4.17 2 7.81V16.18C2 19.83 4.17108 22 7.8129 22H16.1871C19.8289 22 22 19.83 22 16.19V7.81C22.01 4.17 19.8389 2 16.1971 2ZM9.91394 16.19C9.91394 16.83 9.39368 17.35 8.74336 17.35C8.10304 17.35 7.58278 16.83 7.58278 16.19V12.93C7.58278 12.29 8.10304 11.77 8.74336 11.77C9.39368 11.77 9.91394 12.29 9.91394 12.93V16.19ZM16.4272 16.19C16.4272 16.83 15.9069 17.35 15.2666 17.35C14.6163 17.35 14.096 16.83 14.096 16.19V7.81C14.096 7.17 14.6163 6.65 15.2666 6.65C15.9069 6.65 16.4272 7.17 16.4272 7.81V16.19Z" fill="#FE8439"/>
</svg>
