<svg width="24" height="24" viewBox="0 0 24 24" fill="none" xmlns="http://www.w3.org/2000/svg">
<path d="M20.0222 6.81994L14.268 2.78994C12.6995 1.68994 10.2919 1.74994 8.78344 2.91994L3.77845 6.82994C2.77945 7.60994 1.99023 9.20994 1.99023 10.4699V17.3699C1.99023 19.9199 4.05817 21.9999 6.60562 21.9999H17.3748C19.9223 21.9999 21.9902 19.9299 21.9902 17.3799V10.5999C21.9902 9.24994 21.1211 7.58994 20.0222 6.81994ZM12.7395 17.9999C12.7395 18.4099 12.3998 18.7499 11.9902 18.7499C11.5806 18.7499 11.241 18.4099 11.241 17.9999V14.9999C11.241 14.5899 11.5806 14.2499 11.9902 14.2499C12.3998 14.2499 12.7395 14.5899 12.7395 14.9999V17.9999Z" fill="#FE8439"/>
</svg>
