<svg width="57" height="56" viewBox="0 0 57 56" fill="none" xmlns="http://www.w3.org/2000/svg">
<path d="M0.5 24C0.5 10.7452 11.2452 0 24.5 0H32.5C45.7548 0 56.5 10.7452 56.5 24V32C56.5 45.2548 45.7548 56 32.5 56H24.5C11.2452 56 0.5 45.2548 0.5 32V24Z" fill="#C7F1FF"/>
<path d="M34.1666 41.9999C35.4553 41.9999 36.5 40.9552 36.5 39.6666C36.5 38.3779 35.4553 37.3333 34.1666 37.3333C32.878 37.3333 31.8333 38.3779 31.8333 39.6666C31.8333 40.9552 32.878 41.9999 34.1666 41.9999Z" fill="#6A9EB3"/>
<path d="M23.5 41.9999C24.7887 41.9999 25.8334 40.9552 25.8334 39.6666C25.8334 38.3779 24.7887 37.3333 23.5 37.3333C22.2114 37.3333 21.1667 38.3779 21.1667 39.6666C21.1667 40.9552 22.2114 41.9999 23.5 41.9999Z" fill="#6A9EB3"/>
<path d="M18.9534 17.2534L18.6867 20.5201C18.6334 21.1467 19.1267 21.6667 19.7534 21.6667H40.1667C40.7267 21.6667 41.1934 21.2401 41.2334 20.6801C41.4067 18.3201 39.6067 16.4001 37.2467 16.4001H20.86C20.7267 15.8134 20.46 15.2534 20.0467 14.7867C19.38 14.0801 18.4467 13.6667 17.4867 13.6667H15.1667C14.62 13.6667 14.1667 14.1201 14.1667 14.6667C14.1667 15.2134 14.62 15.6667 15.1667 15.6667H17.4867C17.9 15.6667 18.2867 15.8401 18.5667 16.1334C18.8467 16.4401 18.98 16.8401 18.9534 17.2534Z" fill="#6A9EB3"/>
<path d="M39.8467 23.6667H19.3933C18.8333 23.6667 18.38 24.0934 18.3267 24.6401L17.8467 30.4401C17.66 32.7201 19.4467 34.6667 21.7267 34.6667H36.5533C38.5533 34.6667 40.3133 33.0267 40.46 31.0267L40.9 24.8001C40.9533 24.1867 40.4733 23.6667 39.8467 23.6667Z" fill="#6A9EB3"/>
</svg>
