<svg width="57" height="56" viewBox="0 0 57 56" fill="none" xmlns="http://www.w3.org/2000/svg">
<path d="M0.5 24C0.5 10.7452 11.2452 0 24.5 0H32.5C45.7548 0 56.5 10.7452 56.5 24V32C56.5 45.2548 45.7548 56 32.5 56H24.5C11.2452 56 0.5 45.2548 0.5 32V24Z" fill="#FEC9A7"/>
<path d="M30.46 21.88L33.74 20.2667C34.14 20.0667 34.2467 19.5467 33.94 19.2267C32.7533 17.92 31.5533 16.8267 30.5933 16C30.1533 15.6267 29.5 15.9333 29.5 16.5067V21.28C29.5 21.7733 30.02 22.0933 30.46 21.88Z" fill="#BB8B6D"/>
<path d="M29.5 38.32V40.52C29.5 40.92 29.86 41.2533 30.26 41.1866C33.9 40.5866 36.94 38.1466 38.38 34.8666C38.6333 34.3066 38.02 33.7466 37.46 34.0133L29.8733 37.7333C29.6467 37.84 29.5 38.0666 29.5 38.32Z" fill="#BB8B6D"/>
<path d="M27.5 16.48C27.5 15.9067 26.8467 15.6 26.4067 15.96C23.26 18.6 17.6733 24.16 17.7 30.5333C17.7 35.8933 21.62 40.3333 26.74 41.1867C27.14 41.2533 27.5 40.92 27.5 40.52V16.48Z" fill="#BB8B6D"/>
<path d="M30.42 28.6266L37.4734 25.6666C37.8334 25.5066 38.0067 25.0933 37.8334 24.7466C37.34 23.7733 36.7667 22.8266 36.14 21.9466C35.9534 21.6799 35.6067 21.5999 35.3134 21.7333L29.86 24.3866C29.6334 24.4933 29.4867 24.7333 29.4867 24.9866V28.0133C29.5 28.4799 29.98 28.8133 30.42 28.6266Z" fill="#BB8B6D"/>
<path d="M38.94 31.0801C39.1533 30.9735 39.2867 30.7734 39.2867 30.5468C39.2867 29.6934 39.18 28.8535 38.9933 28.0268C38.9 27.6268 38.46 27.4135 38.0867 27.5735L29.9 31.0668C29.66 31.1735 29.5 31.4135 29.5 31.6801V34.6134C29.5 35.1068 30.02 35.4268 30.46 35.2135L38.3267 31.3868L38.94 31.0801Z" fill="#BB8B6D"/>
</svg>
