<svg width="57" height="56" viewBox="0 0 57 56" fill="none" xmlns="http://www.w3.org/2000/svg">
<path d="M0.5 24C0.5 10.7452 11.2452 0 24.5 0H32.5C45.7548 0 56.5 10.7452 56.5 24V32C56.5 45.2548 45.7548 56 32.5 56H24.5C11.2452 56 0.5 45.2548 0.5 32V24Z" fill="#FFCECF"/>
<path d="M41.8334 40.3333H15.1667C14.62 40.3333 14.1667 40.7866 14.1667 41.3333C14.1667 41.8799 14.62 42.3333 15.1667 42.3333H41.8334C42.38 42.3333 42.8334 41.8799 42.8334 41.3333C42.8334 40.7866 42.38 40.3333 41.8334 40.3333Z" fill="#B17B7C"/>
<path d="M35.1667 14.6667H21.8333C17.8333 14.6667 16.5 17.0534 16.5 20.0001V41.3334H24.5V33.2534C24.5 32.5601 25.06 32.0001 25.7533 32.0001H31.26C31.94 32.0001 32.5133 32.5601 32.5133 33.2534V41.3334H40.5133V20.0001C40.5 17.0534 39.1667 14.6667 35.1667 14.6667ZM31.8333 24.3334H29.5V26.6667C29.5 27.2134 29.0467 27.6667 28.5 27.6667C27.9533 27.6667 27.5 27.2134 27.5 26.6667V24.3334H25.1667C24.62 24.3334 24.1667 23.8801 24.1667 23.3334C24.1667 22.7867 24.62 22.3334 25.1667 22.3334H27.5V20.0001C27.5 19.4534 27.9533 19.0001 28.5 19.0001C29.0467 19.0001 29.5 19.4534 29.5 20.0001V22.3334H31.8333C32.38 22.3334 32.8333 22.7867 32.8333 23.3334C32.8333 23.8801 32.38 24.3334 31.8333 24.3334Z" fill="#B17B7C"/>
</svg>
