<svg width="56" height="56" viewBox="0 0 56 56" fill="none" xmlns="http://www.w3.org/2000/svg">
<path d="M0 24C0 10.7452 10.7452 0 24 0H32C45.2548 0 56 10.7452 56 24V32C56 45.2548 45.2548 56 32 56H24C10.7452 56 0 45.2548 0 32V24Z" fill="#B9C5E1"/>
<path d="M35.5485 16.3333H30.8818C29.1123 16.3333 27.6545 17.8818 27.416 19.6264C27.3786 19.9 27.6057 20.1249 27.8818 20.1249H33.2152C33.6935 20.1249 34.0902 20.5216 34.0902 20.9999C34.0902 21.4783 33.6935 21.8749 33.2152 21.8749H27.8818C27.6057 21.8749 27.3818 22.0988 27.3818 22.3749V24.2916C27.3818 24.5677 27.6057 24.7916 27.8818 24.7916H30.6602C31.1385 24.7916 31.5352 25.1883 31.5352 25.6666C31.5352 26.1449 31.1385 26.5416 30.6602 26.5416H27.8818C27.6057 26.5416 27.3818 26.7654 27.3818 27.0416V28.9049C27.3818 29.1791 27.6027 29.4021 27.8768 29.4049L33.2152 29.4583C33.7052 29.4583 34.0902 29.8549 34.0902 30.3449C34.0785 30.8233 33.6935 31.2083 33.2152 31.2083C33.2035 31.2083 33.2035 31.2083 33.2035 31.2083L27.8868 31.155C27.6088 31.1522 27.3818 31.3769 27.3818 31.655V33.6249C27.3818 33.9011 27.6057 34.1249 27.8818 34.1249H31.9318C32.4218 34.1249 32.8068 34.5216 32.8068 34.9999C32.8068 35.4783 32.4218 35.8749 31.9318 35.8749H27.8818C27.6057 35.8749 27.3786 36.0998 27.416 36.3734C27.6545 38.118 29.1123 39.6666 30.8818 39.6666H35.5485C37.4735 39.6666 39.0485 38.1033 39.0485 36.1666V19.8333C39.0485 17.8966 37.4735 16.3333 35.5485 16.3333Z" fill="#5C627A"/>
<path d="M23.8467 19.7749V20.7916C23.8467 21.0677 23.6228 21.2916 23.3467 21.2916H17.4517C17.1755 21.2916 16.9517 21.0677 16.9517 20.7916V19.7749C16.9517 17.8849 18.5033 16.3333 20.405 16.3333C22.295 16.3333 23.8467 17.8849 23.8467 19.7749Z" fill="#5C627A"/>
<path d="M16.9517 34.8951C16.9517 35.4201 17.1733 36.2251 17.4533 36.6684L18.3983 38.2551C19.5067 40.0984 21.3033 40.0984 22.4 38.2551L23.3567 36.6684C23.625 36.2251 23.8467 35.4201 23.8467 34.8951V23.5417C23.8467 23.2656 23.6228 23.0417 23.3467 23.0417H17.4517C17.1755 23.0417 16.9517 23.2656 16.9517 23.5417V34.8951Z" fill="#5C627A"/>
</svg>
