<svg width="57" height="56" viewBox="0 0 57 56" fill="none" xmlns="http://www.w3.org/2000/svg">
<path d="M0.5 24C0.5 10.7452 11.2452 0 24.5 0H32.5C45.7548 0 56.5 10.7452 56.5 24V32C56.5 45.2548 45.7548 56 32.5 56H24.5C11.2452 56 0.5 45.2548 0.5 32V24Z" fill="#CCDCFF"/>
<path d="M28.5 37.0001C27.9533 37.0001 27.5 36.5467 27.5 36.0001V34.6667C27.5 34.1201 27.9533 33.6667 28.5 33.6667C29.0467 33.6667 29.5 34.1201 29.5 34.6667V36.0001C29.5 36.5467 29.0467 37.0001 28.5 37.0001Z" fill="#7B8EB7"/>
<path d="M28.5 42.3333C27.9533 42.3333 27.5 41.88 27.5 41.3333V40C27.5 39.4533 27.9533 39 28.5 39C29.0467 39 29.5 39.4533 29.5 40V41.3333C29.5 41.88 29.0467 42.3333 28.5 42.3333Z" fill="#7B8EB7"/>
<path d="M15.1667 42.3334C15.0867 42.3334 15.0067 42.32 14.9267 42.3067C14.3933 42.1734 14.06 41.6267 14.1933 41.0934L15.5267 35.76C15.66 35.2267 16.1933 34.8934 16.74 35.0267C17.2733 35.16 17.6067 35.7067 17.4733 36.24L16.14 41.5734C16.02 42.0267 15.62 42.3334 15.1667 42.3334Z" fill="#7B8EB7"/>
<path d="M41.5035 42.0036C41.0502 42.0036 40.6502 41.6969 40.5302 41.2436L39.1969 35.9103C39.0635 35.3769 39.3835 34.8303 39.9302 34.6969C40.4635 34.5636 41.0102 34.8836 41.1435 35.4303L42.4769 40.7636C42.6102 41.2969 42.2902 41.8436 41.7435 41.9769C41.6635 41.9903 41.5835 42.0036 41.5035 42.0036Z" fill="#7B8EB7"/>
<path d="M38.02 19.0666C38.02 19.4666 37.6867 19.7866 37.3 19.7866H19.8733C19.4733 19.7866 19.1533 19.4533 19.1533 19.0666C19.1533 18.6666 19.4867 18.3466 19.8733 18.3466H20.86L21.2333 16.5999C21.58 14.8933 22.3 13.3333 25.18 13.3333H31.9667C34.8467 13.3333 35.58 14.8933 35.9267 16.5866L36.3 18.3333H37.2867C37.6867 18.3333 38.02 18.6666 38.02 19.0666Z" fill="#7B8EB7"/>
<path d="M38.4333 24.5333C38.2867 22.9333 37.86 21.24 34.7533 21.24H22.4067C19.3 21.24 18.8867 22.9467 18.7267 24.5333L18.18 30.4267C18.1133 31.16 18.3533 31.8933 18.86 32.4533C19.38 33.0133 20.1 33.3333 20.8733 33.3333H22.6867C24.26 33.3333 24.5533 32.44 24.7533 31.84L24.9533 31.2533C25.18 30.5867 25.2333 30.4267 26.1 30.4267H31.06C31.9267 30.4267 31.9533 30.52 32.2067 31.2533L32.4067 31.84C32.5933 32.44 32.9 33.3333 34.46 33.3333H36.2733C37.0333 33.3333 37.7667 33.0133 38.2867 32.4533C38.7933 31.9067 39.0333 31.16 38.9667 30.4267L38.4333 24.5333ZM25.6733 26.56H22.78C22.38 26.56 22.06 26.2267 22.06 25.84C22.06 25.4533 22.3933 25.12 22.78 25.12H25.6867C26.0867 25.12 26.4067 25.4533 26.4067 25.84C26.4067 26.2267 26.0733 26.56 25.6733 26.56ZM34.38 26.56H31.4733C31.0733 26.56 30.7533 26.2267 30.7533 25.84C30.7533 25.4533 31.0867 25.12 31.4733 25.12H34.38C34.78 25.12 35.1 25.4533 35.1 25.84C35.1 26.2267 34.78 26.56 34.38 26.56Z" fill="#7B8EB7"/>
</svg>
