<svg width="48" height="48" viewBox="0 0 48 48" fill="none" xmlns="http://www.w3.org/2000/svg">
<path d="M0 20C0 8.95431 8.9543 0 20 0H28C39.0457 0 48 8.9543 48 20V28C48 39.0457 39.0457 48 28 48H20C8.95431 48 0 39.0457 0 28V20Z" fill="#F3EFC3"/>
<path d="M35.6666 32.1667V35.6667H12.3333V32.1667C12.3333 31.525 12.8583 31 13.4999 31H34.4999C35.1416 31 35.6666 31.525 35.6666 32.1667Z" fill="#9D9858" stroke="#9D9858" stroke-width="1.5" stroke-miterlimit="10" stroke-linecap="round" stroke-linejoin="round"/>
<path d="M18.1666 22.8333H15.8333V30.9999H18.1666V22.8333Z" fill="#9D9858"/>
<path d="M22.8333 22.8333H20.5V30.9999H22.8333V22.8333Z" fill="#9D9858"/>
<path d="M27.5001 22.8333H25.1667V30.9999H27.5001V22.8333Z" fill="#9D9858"/>
<path d="M32.1666 22.8333H29.8333V30.9999H32.1666V22.8333Z" fill="#9D9858"/>
<path d="M36.8334 36.5417H11.1667C10.6884 36.5417 10.2917 36.1451 10.2917 35.6667C10.2917 35.1884 10.6884 34.7917 11.1667 34.7917H36.8334C37.3117 34.7917 37.7084 35.1884 37.7084 35.6667C37.7084 36.1451 37.3117 36.5417 36.8334 36.5417Z" fill="#9D9858"/>
<path d="M34.9316 16.7082L24.4316 12.5082C24.1983 12.4149 23.8016 12.4149 23.5683 12.5082L13.0683 16.7082C12.6599 16.8716 12.3333 17.3499 12.3333 17.7932V21.6666C12.3333 22.3082 12.8583 22.8332 13.4999 22.8332H34.4999C35.1416 22.8332 35.6666 22.3082 35.6666 21.6666V17.7932C35.6666 17.3499 35.3399 16.8716 34.9316 16.7082ZM23.9999 19.9166C23.0316 19.9166 22.2499 19.1349 22.2499 18.1666C22.2499 17.1982 23.0316 16.4166 23.9999 16.4166C24.9683 16.4166 25.7499 17.1982 25.7499 18.1666C25.7499 19.1349 24.9683 19.9166 23.9999 19.9166Z" fill="#9D9858"/>
</svg>
