<svg width="57" height="56" viewBox="0 0 57 56" fill="none" xmlns="http://www.w3.org/2000/svg">
<path d="M0.5 24C0.5 10.7452 11.2452 0 24.5 0H32.5C45.7548 0 56.5 10.7452 56.5 24V32C56.5 45.2548 45.7548 56 32.5 56H24.5C11.2452 56 0.5 45.2548 0.5 32V24Z" fill="#DAB5FF"/>
<path d="M34.7 18.6267H22.3C18.3667 18.6267 15.1667 21.8267 15.1667 25.76V33.2C15.1667 37.1334 18.3667 40.3334 22.3 40.3334H34.7C38.6334 40.3334 41.8334 37.1334 41.8334 33.2V25.76C41.8334 21.8267 38.6334 18.6267 34.7 18.6267ZM31.8334 27.0267C31.8334 26.2934 32.4334 25.6934 33.1667 25.6934C33.9 25.6934 34.5 26.2934 34.5 27.0267C34.5 27.76 33.9 28.3734 33.1667 28.3734C32.4334 28.3734 31.8334 27.7867 31.8334 27.0534V27.0267ZM26.0067 32.4267C25.8067 32.6267 25.5534 32.72 25.3 32.72C25.0467 32.72 24.7934 32.6267 24.5934 32.4267L23.22 31.0534L21.9 32.3734C21.7 32.5734 21.4467 32.6667 21.1934 32.6667C20.94 32.6667 20.6867 32.5734 20.4867 32.3734C20.1 31.9867 20.1 31.3467 20.4867 30.96L21.8067 29.64L20.5267 28.36C20.14 27.9734 20.14 27.3334 20.5267 26.9467C20.9134 26.56 21.5534 26.56 21.94 26.9467L23.22 28.2267L24.54 26.9067C24.9267 26.52 25.5667 26.52 25.9534 26.9067C26.34 27.2934 26.34 27.9334 25.9534 28.32L24.6334 29.64L26.0067 31.0134C26.3934 31.4 26.3934 32.04 26.0067 32.4267ZM30.5534 31C29.82 31 29.2067 30.4 29.2067 29.6667C29.2067 28.9334 29.7934 28.3334 30.5267 28.3334H30.5534C31.2867 28.3334 31.8867 28.9334 31.8867 29.6667C31.8867 30.4 31.3 31 30.5534 31ZM33.1667 33.6267C32.4334 33.6267 31.8334 33.04 31.8334 32.3067V32.28C31.8334 31.5467 32.4334 30.9467 33.1667 30.9467C33.9 30.9467 34.5 31.5467 34.5 32.28C34.5 33.0134 33.9134 33.6267 33.1667 33.6267ZM35.8067 31C35.0734 31 34.46 30.4 34.46 29.6667C34.46 28.9334 35.0467 28.3334 35.78 28.3334H35.8067C36.54 28.3334 37.14 28.9334 37.14 29.6667C37.14 30.4 36.5534 31 35.8067 31Z" fill="#9270B4"/>
<path d="M30.6867 14.6134L30.6734 15.8667C30.66 17.0401 29.6867 18.0134 28.5 18.0134C28.3 18.0134 28.18 18.1467 28.18 18.3201C28.18 18.4934 28.3134 18.6267 28.4867 18.6267H26.34C26.3267 18.5334 26.3134 18.4267 26.3134 18.3201C26.3134 17.1201 27.2867 16.1467 28.4734 16.1467C28.6734 16.1467 28.8067 16.0134 28.8067 15.8401L28.82 14.5867C28.8334 14.0801 29.2467 13.6667 29.7534 13.6667H29.7667C30.2867 13.6667 30.6867 14.0934 30.6867 14.6134Z" fill="#9270B4"/>
</svg>
