<svg width="57" height="56" viewBox="0 0 57 56" fill="none" xmlns="http://www.w3.org/2000/svg">
<path d="M0.5 24C0.5 10.7452 11.2452 0 24.5 0H32.5C45.7548 0 56.5 10.7452 56.5 24V32C56.5 45.2548 45.7548 56 32.5 56H24.5C11.2452 56 0.5 45.2548 0.5 32V24Z" fill="#B0DCC7"/>
<path d="M41.8333 18.4666V34.3199C41.8333 35.6132 40.78 36.7999 39.4867 36.9599L39.0733 37.0132C36.8867 37.3066 33.8067 38.2132 31.3267 39.2532C30.46 39.6132 29.5 38.9599 29.5 38.0132V19.4666C29.5 18.9732 29.78 18.5199 30.22 18.2799C32.66 16.9599 36.3533 15.7866 38.86 15.5732H38.94C40.54 15.5732 41.8333 16.8666 41.8333 18.4666Z" fill="#6D9A84"/>
<path d="M26.78 18.2799C24.34 16.9599 20.6467 15.7866 18.14 15.5732H18.0467C16.4467 15.5732 15.1533 16.8666 15.1533 18.4666V34.3199C15.1533 35.6132 16.2067 36.7999 17.5 36.9599L17.9133 37.0132C20.1 37.3066 23.18 38.2132 25.66 39.2532C26.5267 39.6132 27.4867 38.9599 27.4867 38.0132V19.4666C27.4867 18.9599 27.22 18.5199 26.78 18.2799ZM19.1667 22.3199H22.1667C22.7133 22.3199 23.1667 22.7732 23.1667 23.3199C23.1667 23.8799 22.7133 24.3199 22.1667 24.3199H19.1667C18.62 24.3199 18.1667 23.8799 18.1667 23.3199C18.1667 22.7732 18.62 22.3199 19.1667 22.3199ZM23.1667 28.3199H19.1667C18.62 28.3199 18.1667 27.8799 18.1667 27.3199C18.1667 26.7732 18.62 26.3199 19.1667 26.3199H23.1667C23.7133 26.3199 24.1667 26.7732 24.1667 27.3199C24.1667 27.8799 23.7133 28.3199 23.1667 28.3199Z" fill="#6D9A84"/>
</svg>
