<svg width="57" height="56" viewBox="0 0 57 56" fill="none" xmlns="http://www.w3.org/2000/svg">
<path d="M0.5 24C0.5 10.7452 11.2452 0 24.5 0H32.5C45.7548 0 56.5 10.7452 56.5 24V32C56.5 45.2548 45.7548 56 32.5 56H24.5C11.2452 56 0.5 45.2548 0.5 32V24Z" fill="#FFE4C1"/>
<path d="M21.5 17.8267C20.9533 17.8267 20.5 17.3734 20.5 16.8267V14.4934C20.5 13.9467 20.9533 13.4934 21.5 13.4934C22.0467 13.4934 22.5 13.9467 22.5 14.4934V16.8267C22.5 17.3867 22.0467 17.8267 21.5 17.8267Z" fill="#C29559"/>
<path d="M26.8333 17.8267C26.2866 17.8267 25.8333 17.3734 25.8333 16.8267V14.4934C25.8333 13.9467 26.2866 13.4934 26.8333 13.4934C27.38 13.4934 27.8333 13.9467 27.8333 14.4934V16.8267C27.8333 17.3867 27.38 17.8267 26.8333 17.8267Z" fill="#C29559"/>
<path d="M32.1667 17.8267C31.62 17.8267 31.1667 17.3734 31.1667 16.8267V14.4934C31.1667 13.9467 31.62 13.4934 32.1667 13.4934C32.7134 13.4934 33.1667 13.9467 33.1667 14.4934V16.8267C33.1667 17.3867 32.7134 17.8267 32.1667 17.8267Z" fill="#C29559"/>
<path d="M43.1666 28.6667C43.1666 25.1733 40.46 22.3467 37.0466 22.0533C36.06 20.44 34.3 19.3467 32.2733 19.3467H22.4466C19.3533 19.3467 16.8333 21.8667 16.8333 24.96V25.6667H37.8866V24.96C37.8866 24.7067 37.8466 24.4533 37.8066 24.2133C39.74 24.7867 41.1666 26.5467 41.1666 28.6667C41.1666 30.76 39.78 32.5067 37.8866 33.0933V27H16.8333V34.72C16.8333 37.8133 19.3533 40.3333 22.4466 40.3333H32.2733C35.2066 40.3333 37.5933 38.0667 37.8333 35.1867C40.8733 34.5733 43.1666 31.88 43.1666 28.6667Z" fill="#C29559"/>
</svg>
