<svg width="24" height="24" viewBox="0 0 24 24" fill="none" xmlns="http://www.w3.org/2000/svg">
<path d="M16.5114 2H8.50203C4.49734 2 3.50146 3.01088 3.50146 7.04441V18.3143C3.50146 20.9766 5.04825 21.6072 6.92346 19.7055L6.93406 19.6955C7.8028 18.8247 9.1271 18.8948 9.87931 19.8456L10.9493 21.1968C11.8075 22.2677 13.1954 22.2677 14.0535 21.1968L15.1235 19.8456C15.8863 18.8848 17.2106 18.8147 18.0794 19.6955C19.9652 21.5971 21.5014 20.9666 21.5014 18.3043V7.04441C21.512 3.01088 20.5161 2 16.5114 2ZM15.685 11.7585H9.3284C8.89402 11.7585 8.53381 11.4182 8.53381 11.0079C8.53381 10.5975 8.89402 10.2572 9.3284 10.2572H15.685C16.1194 10.2572 16.4796 10.5975 16.4796 11.0079C16.4796 11.4182 16.1194 11.7585 15.685 11.7585ZM16.7445 7.75504H8.26895C7.83458 7.75504 7.47437 7.41474 7.47437 7.00438C7.47437 6.59402 7.83458 6.25372 8.26895 6.25372H16.7445C17.1789 6.25372 17.5391 6.59402 17.5391 7.00438C17.5391 7.41474 17.1789 7.75504 16.7445 7.75504Z" fill="#FE8439"/>
</svg>
