<svg width="24" height="24" viewBox="0 0 24 24" fill="none" xmlns="http://www.w3.org/2000/svg">
<path d="M16.1971 2H7.8129C4.17108 2 2 4.17 2 7.81V16.18C2 19.83 4.17108 22 7.8129 22H16.1871C19.8289 22 22 19.83 22 16.19V7.81C22.01 4.17 19.8389 2 16.1971 2Z" fill="#FE8439"/>
<path d="M17.8316 18.2178C18.2618 19.064 17.6247 19.9805 16.6807 20.0802C16.2024 20.1307 15.6895 20.155 15.14 20.155H9.14C8.59052 20.155 8.07756 20.1307 7.59928 20.0802C6.65528 19.9805 6.01819 19.064 6.44838 18.2178C7.3717 16.4017 9.57525 15.125 12.14 15.125C14.7048 15.125 16.9083 16.4017 17.8316 18.2178Z" fill="white"/>
<path d="M15 10.2458C15 11.9027 13.6592 13.25 12 13.25C10.3408 13.25 9 11.9027 9 10.2458C9 8.58893 10.3408 7.25 12 7.25C13.6592 7.25 15 8.58893 15 10.2458Z" fill="white"/>
</svg>
