<svg width="24" height="24" viewBox="0 0 24 24" fill="none" xmlns="http://www.w3.org/2000/svg">
<path d="M18 22.0845C17.1401 22.3688 16.1238 22.5 14.9316 22.5H9.0684C7.87622 22.5 6.85993 22.3688 6 22.0845C6.21498 19.2416 8.8241 17 12 17C15.1759 17 17.785 19.2416 18 22.0845Z" stroke="#5C627A" stroke-width="1.5" stroke-linecap="round" stroke-linejoin="round"/>
<path d="M15 2H9C4 2 2 4.09101 2 9.31854V15.5916C2 19.5436 3.28 21.195 6 22C6.22 19.2817 8.75 17 12 17C15.25 17 17.78 19.2817 18 22C20.72 21.195 22 19.5436 22 15.5916V9.31854C22 4.09101 20 2 15 2ZM12 14.7238C10.02 14.7238 8.42 13.0406 8.42 10.9705C8.42 8.90036 10.02 7.22753 12 7.22753C13.98 7.22753 15.58 8.90036 15.58 10.9705C15.58 13.0406 13.98 14.7238 12 14.7238Z" stroke="#5C627A" stroke-width="1.5" stroke-linecap="round" stroke-linejoin="round"/>
</svg>
