<svg width="24" height="24" viewBox="0 0 24 24" fill="none" xmlns="http://www.w3.org/2000/svg">
<path d="M2 9V6.5C2 4.01 4.01 2 6.5 2H9" stroke="#5C627A" stroke-width="1.5" stroke-linecap="round" stroke-linejoin="round"/>
<path d="M14.9998 2H17.4998C19.9898 2 21.9998 4.01 21.9998 6.5V9" stroke="#5C627A" stroke-width="1.5" stroke-linecap="round" stroke-linejoin="round"/>
<path d="M21.9998 16V17.5C21.9998 19.99 19.9898 22 17.4998 22H15.9998" stroke="#5C627A" stroke-width="1.5" stroke-linecap="round" stroke-linejoin="round"/>
<path d="M9 22H6.5C4.01 22 2 19.99 2 17.5V15" stroke="#5C627A" stroke-width="1.5" stroke-linecap="round" stroke-linejoin="round"/>
<path d="M10.5002 7V9C10.5002 10 10.0002 10.5 9.00024 10.5H7.00024C6.00024 10.5 5.50024 10 5.50024 9V7C5.50024 6 6.00024 5.5 7.00024 5.5H9.00024C10.0002 5.5 10.5002 6 10.5002 7Z" stroke="#5C627A" stroke-width="1.5" stroke-linecap="round" stroke-linejoin="round"/>
<path d="M18.5 7V9C18.5 10 18 10.5 17 10.5H15C14 10.5 13.5 10 13.5 9V7C13.5 6 14 5.5 15 5.5H17C18 5.5 18.5 6 18.5 7Z" stroke="#5C627A" stroke-width="1.5" stroke-linecap="round" stroke-linejoin="round"/>
<path d="M10.5002 15V17C10.5002 18 10.0002 18.5 9.00024 18.5H7.00024C6.00024 18.5 5.50024 18 5.50024 17V15C5.50024 14 6.00024 13.5 7.00024 13.5H9.00024C10.0002 13.5 10.5002 14 10.5002 15Z" stroke="#5C627A" stroke-width="1.5" stroke-linecap="round" stroke-linejoin="round"/>
<path d="M18.5 15V17C18.5 18 18 18.5 17 18.5H15C14 18.5 13.5 18 13.5 17V15C13.5 14 14 13.5 15 13.5H17C18 13.5 18.5 14 18.5 15Z" stroke="#5C627A" stroke-width="1.5" stroke-linecap="round" stroke-linejoin="round"/>
</svg>
