<svg width="64" height="64" viewBox="0 0 64 64" fill="none" xmlns="http://www.w3.org/2000/svg">
<path d="M38.2667 5.33325H25.7334C22.96 5.33325 20.6934 7.57325 20.6934 10.3466V12.8533C20.6934 15.6266 22.9334 17.8666 25.7067 17.8666H38.2667C41.04 17.8666 43.28 15.6266 43.28 12.8533V10.3466C43.3067 7.57325 41.04 5.33325 38.2667 5.33325Z" fill="#55C121"/>
<path d="M45.9734 12.8533C45.9734 17.0933 42.5068 20.5599 38.2668 20.5599H25.7334C21.4934 20.5599 18.0268 17.0933 18.0268 12.8533C18.0268 11.3599 16.4268 10.4266 15.0934 11.1199C11.3334 13.1199 8.77344 17.0933 8.77344 21.6533V46.7466C8.77344 53.3066 14.1334 58.6666 20.6934 58.6666H43.3068C49.8668 58.6666 55.2268 53.3066 55.2268 46.7466V21.6533C55.2268 17.0933 52.6668 13.1199 48.9068 11.1199C47.5734 10.4266 45.9734 11.3599 45.9734 12.8533ZM40.9068 33.9466L30.2401 44.6133C29.8401 45.0133 29.3334 45.2 28.8268 45.2C28.3201 45.2 27.8134 45.0133 27.4134 44.6133L23.4134 40.6133C22.6401 39.8399 22.6401 38.5599 23.4134 37.7866C24.1868 37.0133 25.4668 37.0133 26.2401 37.7866L28.8268 40.3733L38.0801 31.1199C38.8534 30.3466 40.1334 30.3466 40.9068 31.1199C41.6801 31.8933 41.6801 33.1733 40.9068 33.9466Z" fill="#55C121"/>
</svg>
